<svg id="wave" style="transform:rotate(0deg); transition: 0.3s" viewBox="0 0 1440 470" version="1.1" xmlns="http://www.w3.org/2000/svg"><defs><linearGradient id="sw-gradient-0" x1="0" x2="0" y1="1" y2="0"><stop stop-color="rgba(222.055, 147.676, 223.445, 1)" offset="0%"></stop><stop stop-color="rgba(234.829, 217.511, 233.974, 1)" offset="100%"></stop></linearGradient></defs><path style="transform:translate(0, 0px); opacity:1" fill="url(#sw-gradient-0)" d="M0,188L80,188C160,188,320,188,480,203.7C640,219,800,251,960,250.7C1120,251,1280,219,1440,242.8C1600,266,1760,345,1920,368.2C2080,392,2240,360,2400,297.7C2560,235,2720,141,2880,133.2C3040,125,3200,204,3360,203.7C3520,204,3680,125,3840,141C4000,157,4160,266,4320,274.2C4480,282,4640,188,4800,172.3C4960,157,5120,219,5280,227.2C5440,235,5600,188,5760,195.8C5920,204,6080,266,6240,274.2C6400,282,6560,235,6720,180.2C6880,125,7040,63,7200,39.2C7360,16,7520,31,7680,78.3C7840,125,8000,204,8160,227.2C8320,251,8480,219,8640,211.5C8800,204,8960,219,9120,211.5C9280,204,9440,172,9600,148.8C9760,125,9920,110,10080,94C10240,78,10400,63,10560,94C10720,125,10880,204,11040,250.7C11200,298,11360,313,11440,321.2L11520,329L11520,470L11440,470C11360,470,11200,470,11040,470C10880,470,10720,470,10560,470C10400,470,10240,470,10080,470C9920,470,9760,470,9600,470C9440,470,9280,470,9120,470C8960,470,8800,470,8640,470C8480,470,8320,470,8160,470C8000,470,7840,470,7680,470C7520,470,7360,470,7200,470C7040,470,6880,470,6720,470C6560,470,6400,470,6240,470C6080,470,5920,470,5760,470C5600,470,5440,470,5280,470C5120,470,4960,470,4800,470C4640,470,4480,470,4320,470C4160,470,4000,470,3840,470C3680,470,3520,470,3360,470C3200,470,3040,470,2880,470C2720,470,2560,470,2400,470C2240,470,2080,470,1920,470C1760,470,1600,470,1440,470C1280,470,1120,470,960,470C800,470,640,470,480,470C320,470,160,470,80,470L0,470Z"></path></svg>