<svg id="wave" style="transform:rotate(0deg); transition: 0.3s" viewBox="0 0 1440 320" version="1.1" xmlns="http://www.w3.org/2000/svg"><defs><linearGradient id="sw-gradient-0" x1="0" x2="0" y1="1" y2="0"><stop stop-color="rgba(227, 206, 228, 1)" offset="0%"></stop><stop stop-color="rgba(227, 206, 228, 1)" offset="100%"></stop></linearGradient></defs><path style="transform:translate(0, 0px); opacity:1" fill="url(#sw-gradient-0)" d="M0,192L80,186.7C160,181,320,171,480,154.7C640,139,800,117,960,128C1120,139,1280,181,1440,208C1600,235,1760,245,1920,234.7C2080,224,2240,192,2400,165.3C2560,139,2720,117,2880,106.7C3040,96,3200,96,3360,106.7C3520,117,3680,139,3840,170.7C4000,203,4160,245,4320,240C4480,235,4640,181,4800,176C4960,171,5120,213,5280,208C5440,203,5600,149,5760,112C5920,75,6080,53,6240,42.7C6400,32,6560,32,6720,58.7C6880,85,7040,139,7200,160C7360,181,7520,171,7680,160C7840,149,8000,139,8160,154.7C8320,171,8480,213,8640,240C8800,267,8960,277,9120,261.3C9280,245,9440,203,9600,154.7C9760,107,9920,53,10080,42.7C10240,32,10400,64,10560,90.7C10720,117,10880,139,11040,149.3C11200,160,11360,160,11440,160L11520,160L11520,320L11440,320C11360,320,11200,320,11040,320C10880,320,10720,320,10560,320C10400,320,10240,320,10080,320C9920,320,9760,320,9600,320C9440,320,9280,320,9120,320C8960,320,8800,320,8640,320C8480,320,8320,320,8160,320C8000,320,7840,320,7680,320C7520,320,7360,320,7200,320C7040,320,6880,320,6720,320C6560,320,6400,320,6240,320C6080,320,5920,320,5760,320C5600,320,5440,320,5280,320C5120,320,4960,320,4800,320C4640,320,4480,320,4320,320C4160,320,4000,320,3840,320C3680,320,3520,320,3360,320C3200,320,3040,320,2880,320C2720,320,2560,320,2400,320C2240,320,2080,320,1920,320C1760,320,1600,320,1440,320C1280,320,1120,320,960,320C800,320,640,320,480,320C320,320,160,320,80,320L0,320Z"></path></svg>